<svg xmlns="http://www.w3.org/2000/svg" width="1200" height="300" viewBox="0 0 1200 300" fill="none" role="img" aria-labelledby="title desc">
  <title id="title">商媒运营助手 Cohmira 反白横版 Logo</title>
  <desc id="desc">商媒运营助手 Cohmira 的深色背景横版品牌组合。</desc>
  <defs>
    <linearGradient id="cohmira-gradient" x1="36" y1="176" x2="178" y2="62" gradientUnits="userSpaceOnUse">
      <stop stop-color="#27D3B8"/>
      <stop offset="0.52" stop-color="#528EEB"/>
      <stop offset="1" stop-color="#886CF4"/>
    </linearGradient>
  </defs>

  <rect width="1200" height="300" rx="32" fill="#0B1224"/>
  <g transform="translate(32 32)">
    <rect width="236" height="236" rx="62" fill="#151D33" stroke="#2B3552" stroke-width="2"/>
    <path d="M167 68C153 51 132 42 108 42C68 42 42 75 42 118C42 161 68 194 108 194C132 194 153 185 167 168" stroke="url(#cohmira-gradient)" stroke-width="20" stroke-linecap="round"/>
    <circle cx="167" cy="68" r="9.5" fill="#886CF4"/>
    <circle cx="42" cy="118" r="9.5" fill="#27D3B8"/>
    <circle cx="167" cy="168" r="9.5" fill="#5A82F1"/>
    <path d="M127 94C130 105 136 111 147 114C136 117 130 123 127 134C124 123 118 117 107 114C118 111 124 105 127 94Z" fill="#F8FAFC"/>
  </g>

  <text x="312" y="142" fill="#F8FAFC" font-family="Inter, SF Pro Display, Segoe UI, Arial, sans-serif" font-size="100" font-weight="700" letter-spacing="-3">Cohmira</text>
  <text x="318" y="210" fill="#D0D5DD" font-family="PingFang SC, Microsoft YaHei, Noto Sans CJK SC, sans-serif" font-size="38" font-weight="600" letter-spacing="3.5">商媒运营助手</text>
  <rect x="590" y="181" width="2" height="32" rx="1" fill="#475467"/>
  <text x="618" y="207" fill="#98A2B3" font-family="Inter, SF Pro Display, Segoe UI, Arial, sans-serif" font-size="22" font-weight="650" letter-spacing="3.2">AI COMMERCE AGENT PLATFORM</text>
</svg>
