<svg xmlns="http://www.w3.org/2000/svg" width="1440" height="900" viewBox="0 0 1440 900" fill="none" role="img" aria-labelledby="title desc">
  <title id="title">商媒运营助手老板指挥台界面示意</title>
  <desc id="desc">展示团队进度、经营数据、风险待办、财务记账和老板 AI。</desc>
  <defs>
    <linearGradient id="bg" x1="40" y1="20" x2="1400" y2="880" gradientUnits="userSpaceOnUse">
      <stop stop-color="#F4F6FC"/>
      <stop offset="1" stop-color="#EEF8F6"/>
    </linearGradient>
    <linearGradient id="brand" x1="0" y1="54" x2="54" y2="0" gradientUnits="userSpaceOnUse">
      <stop stop-color="#27D3B8"/>
      <stop offset="0.52" stop-color="#528EEB"/>
      <stop offset="1" stop-color="#886CF4"/>
    </linearGradient>
    <linearGradient id="summary" x1="1050" y1="170" x2="1320" y2="420" gradientUnits="userSpaceOnUse">
      <stop stop-color="#0B1224"/>
      <stop offset="1" stop-color="#182747"/>
    </linearGradient>
    <filter id="shadow" x="0" y="0" width="1440" height="900" filterUnits="userSpaceOnUse" color-interpolation-filters="sRGB">
      <feDropShadow dx="0" dy="18" stdDeviation="28" flood-color="#101828" flood-opacity="0.13"/>
    </filter>
    <style>
      .sans { font-family: Inter, "PingFang SC", "Microsoft YaHei", Arial, sans-serif; }
      .title { fill: #101828; font-weight: 700; }
      .body { fill: #475467; font-weight: 500; }
      .muted { fill: #98A2B3; font-weight: 500; }
    </style>
  </defs>

  <rect width="1440" height="900" fill="url(#bg)"/>
  <circle cx="1280" cy="70" r="210" fill="#528EEB" opacity="0.07"/>
  <circle cx="70" cy="820" r="190" fill="#27D3B8" opacity="0.07"/>

  <g filter="url(#shadow)">
    <rect x="40" y="38" width="1360" height="824" rx="30" fill="#FFFFFF"/>
  </g>
  <rect x="40" y="38" width="1360" height="58" rx="30" fill="#FBFCFE"/>
  <path d="M40 68C40 51.4315 53.4315 38 70 38H1370C1386.57 38 1400 51.4315 1400 68V96H40V68Z" fill="#FBFCFE"/>
  <circle cx="74" cy="67" r="6" fill="#FF6B6B"/>
  <circle cx="96" cy="67" r="6" fill="#FFCC66"/>
  <circle cx="118" cy="67" r="6" fill="#35C98B"/>
  <text x="720" y="74" text-anchor="middle" class="sans muted" font-size="15">商媒运营助手 · 老板指挥台</text>
  <rect x="1276" y="53" width="94" height="28" rx="14" fill="#F3F0FF"/>
  <text x="1323" y="72" text-anchor="middle" class="sans" font-size="12" font-weight="700" fill="#5747D6">界面示意</text>

  <rect x="40" y="96" width="244" height="766" fill="#0B1224"/>
  <g transform="translate(66 124)">
    <rect width="48" height="48" rx="14" fill="#151D33"/>
    <path d="M35 15C31.5 10.8 26.5 8.5 21 8.5C11.7 8.5 6 15.7 6 24C6 32.3 11.7 39.5 21 39.5C26.5 39.5 31.5 37.2 35 33" stroke="url(#brand)" stroke-width="5" stroke-linecap="round"/>
    <path d="M26 17C27 20.3 29 22.2 32.4 23C29 23.8 27 25.7 26 29C25 25.7 23 23.8 19.6 23C23 22.2 25 20.3 26 17Z" fill="#F8FAFC"/>
  </g>
  <text x="126" y="145" class="sans" font-size="18" font-weight="700" fill="#F8FAFC">商媒运营助手</text>
  <text x="126" y="165" class="sans" font-size="12" font-weight="600" fill="#8F9BB5">Cohmira Command</text>

  <text x="66" y="215" class="sans" font-size="11" font-weight="700" letter-spacing="1.5" fill="#667085">管理视图</text>
  <g class="sans" font-size="14" font-weight="600">
    <rect x="56" y="230" width="212" height="44" rx="12" fill="#1D3154"/>
    <circle cx="78" cy="252" r="8" fill="#886CF4"/>
    <text x="98" y="257" fill="#FFFFFF">今日总览</text>
    <text x="66" y="309" fill="#A9B4CA">员工周报</text>
    <text x="66" y="354" fill="#A9B4CA">经营数据</text>
    <text x="66" y="399" fill="#A9B4CA">财务记账</text>
    <text x="66" y="444" fill="#A9B4CA">老板 AI</text>
    <text x="66" y="489" fill="#A9B4CA">员工与绑定</text>
  </g>
  <line x1="64" y1="538" x2="256" y2="538" stroke="#25304A"/>
  <text x="66" y="574" class="sans" font-size="11" font-weight="700" letter-spacing="1.5" fill="#667085">组织状态</text>
  <rect x="58" y="594" width="204" height="70" rx="14" fill="#151D33" stroke="#2B3552"/>
  <circle cx="82" cy="620" r="7" fill="#27D3B8"/>
  <text x="100" y="624" class="sans" font-size="12" font-weight="700" fill="#E4E7EC">本地数据服务正常</text>
  <text x="82" y="646" class="sans" font-size="10" fill="#8F9BB5">员工 8 · Agent 12 · 待同步 0</text>
  <rect x="58" y="786" width="204" height="48" rx="12" fill="#10182B"/>
  <circle cx="82" cy="810" r="13" fill="#886CF4"/>
  <text x="103" y="806" class="sans" font-size="12" font-weight="700" fill="#F2F4F7">老板账号 · 徐先生</text>
  <text x="103" y="822" class="sans" font-size="10" fill="#8F9BB5">OWNER-B7429</text>

  <text x="326" y="144" class="sans title" font-size="25">经营总览</text>
  <text x="326" y="171" class="sans body" font-size="14">先看关键进展、风险与成本，再做需要老板确认的决定。</text>
  <rect x="1214" y="126" width="146" height="38" rx="19" fill="#FFFFFF" stroke="#DDE3EC"/>
  <circle cx="1238" cy="145" r="6" fill="#27D3B8"/>
  <text x="1252" y="150" class="sans" font-size="11" font-weight="700" fill="#475467">数据更新于 10:32</text>

  <g>
    <rect x="326" y="198" width="224" height="104" rx="18" fill="#FFFFFF" stroke="#E4E7EC"/>
    <text x="352" y="230" class="sans body" font-size="13">团队任务完成率</text>
    <text x="352" y="272" class="sans title" font-size="31">82%</text>
    <rect x="446" y="256" width="76" height="8" rx="4" fill="#E4E7EC"/>
    <rect x="446" y="256" width="62" height="8" rx="4" fill="#27D3B8"/>

    <rect x="568" y="198" width="224" height="104" rx="18" fill="#FFFFFF" stroke="#E4E7EC"/>
    <text x="594" y="230" class="sans body" font-size="13">等待老板处理</text>
    <text x="594" y="272" class="sans title" font-size="31">5</text>
    <rect x="672" y="244" width="92" height="28" rx="14" fill="#FFF4E8"/>
    <text x="718" y="262" text-anchor="middle" class="sans" font-size="10" font-weight="700" fill="#B54708">2 项较紧急</text>

    <rect x="810" y="198" width="224" height="104" rx="18" fill="#FFFFFF" stroke="#E4E7EC"/>
    <text x="836" y="230" class="sans body" font-size="13">本月内容投入</text>
    <text x="836" y="272" class="sans title" font-size="28">¥ 38,420</text>
    <text x="966" y="272" class="sans" font-size="10" font-weight="700" fill="#087F70">预算内</text>

    <rect x="1052" y="198" width="308" height="104" rx="18" fill="url(#summary)"/>
    <text x="1078" y="230" class="sans" font-size="13" font-weight="600" fill="#98A2B3">老板 AI 今日判断</text>
    <text x="1078" y="258" class="sans" font-size="14" font-weight="700" fill="#F8FAFC">新品内容进度正常，投放素材需补 2 组。</text>
    <text x="1078" y="281" class="sans" font-size="11" fill="#A9B4CA">已结合任务、质量、成本与发布结果</text>
  </g>

  <rect x="326" y="328" width="708" height="478" rx="22" fill="#FFFFFF" stroke="#DDE3EC"/>
  <text x="354" y="368" class="sans title" font-size="17">员工与任务进展</text>
  <text x="354" y="390" class="sans muted" font-size="12">按本周目标、质量和阻塞状态聚合</text>
  <rect x="912" y="350" width="94" height="30" rx="15" fill="#F8FAFC" stroke="#E4E7EC"/>
  <text x="959" y="369" text-anchor="middle" class="sans" font-size="10" font-weight="700" fill="#475467">查看全部 8 人</text>

  <g class="sans">
    <rect x="354" y="414" width="652" height="42" rx="10" fill="#F8FAFC"/>
    <text x="374" y="440" font-size="11" font-weight="700" fill="#667085">员工 / 职责</text>
    <text x="618" y="440" font-size="11" font-weight="700" fill="#667085">本周进度</text>
    <text x="796" y="440" font-size="11" font-weight="700" fill="#667085">质量</text>
    <text x="914" y="440" font-size="11" font-weight="700" fill="#667085">状态</text>

    <circle cx="382" cy="492" r="20" fill="#EEF4FF"/>
    <text x="382" y="498" text-anchor="middle" font-size="13" font-weight="700" fill="#3569C8">林</text>
    <text x="414" y="488" font-size="13" font-weight="700" fill="#101828">林澄</text>
    <text x="414" y="508" font-size="10" fill="#667085">内容运营 · 新品组</text>
    <rect x="618" y="484" width="132" height="8" rx="4" fill="#EAECF0"/>
    <rect x="618" y="484" width="112" height="8" rx="4" fill="#528EEB"/>
    <text x="618" y="510" font-size="10" fill="#667085">17 / 20 个任务</text>
    <text x="796" y="498" font-size="13" font-weight="700" fill="#101828">93</text>
    <rect x="914" y="480" width="70" height="24" rx="12" fill="#E9FBF7"/>
    <text x="949" y="496" text-anchor="middle" font-size="9" font-weight="700" fill="#087F70">顺利</text>

    <line x1="354" y1="532" x2="1006" y2="532" stroke="#EAECF0"/>
    <circle cx="382" cy="574" r="20" fill="#F3F0FF"/>
    <text x="382" y="580" text-anchor="middle" font-size="13" font-weight="700" fill="#5747D6">周</text>
    <text x="414" y="570" font-size="13" font-weight="700" fill="#101828">周祺</text>
    <text x="414" y="590" font-size="10" fill="#667085">视觉设计 · 品牌组</text>
    <rect x="618" y="566" width="132" height="8" rx="4" fill="#EAECF0"/>
    <rect x="618" y="566" width="92" height="8" rx="4" fill="#886CF4"/>
    <text x="618" y="592" font-size="10" fill="#667085">9 / 13 个任务</text>
    <text x="796" y="580" font-size="13" font-weight="700" fill="#101828">88</text>
    <rect x="914" y="562" width="70" height="24" rx="12" fill="#FFF4E8"/>
    <text x="949" y="578" text-anchor="middle" font-size="9" font-weight="700" fill="#B54708">待确认</text>

    <line x1="354" y1="614" x2="1006" y2="614" stroke="#EAECF0"/>
    <circle cx="382" cy="656" r="20" fill="#E9FBF7"/>
    <text x="382" y="662" text-anchor="middle" font-size="13" font-weight="700" fill="#087F70">宋</text>
    <text x="414" y="652" font-size="13" font-weight="700" fill="#101828">宋遥</text>
    <text x="414" y="672" font-size="10" fill="#667085">账号投放 · 增长组</text>
    <rect x="618" y="648" width="132" height="8" rx="4" fill="#EAECF0"/>
    <rect x="618" y="648" width="76" height="8" rx="4" fill="#27D3B8"/>
    <text x="618" y="674" font-size="10" fill="#667085">7 / 12 个任务</text>
    <text x="796" y="662" font-size="13" font-weight="700" fill="#101828">84</text>
    <rect x="914" y="644" width="70" height="24" rx="12" fill="#FFEDEC"/>
    <text x="949" y="660" text-anchor="middle" font-size="9" font-weight="700" fill="#B42318">有阻塞</text>

    <line x1="354" y1="696" x2="1006" y2="696" stroke="#EAECF0"/>
    <rect x="354" y="720" width="652" height="58" rx="14" fill="#F8FAFC"/>
    <text x="374" y="744" font-size="11" font-weight="700" fill="#475467">团队重点</text>
    <text x="374" y="764" font-size="11" fill="#667085">新品首发完成 68%，主要风险为素材审批与抖音账号授权。</text>
  </g>

  <rect x="1052" y="328" width="308" height="478" rx="22" fill="#F8FAFC" stroke="#E4E7EC"/>
  <text x="1080" y="368" class="sans title" font-size="17">需要老板决定</text>
  <text x="1080" y="390" class="sans muted" font-size="12">只保留影响进度和经营结果的事项</text>
  <g class="sans">
    <rect x="1080" y="414" width="252" height="104" rx="16" fill="#FFFFFF" stroke="#F5CBA7"/>
    <circle cx="1103" cy="439" r="9" fill="#F79009"/>
    <text x="1121" y="443" font-size="12" font-weight="700" fill="#101828">确认新品封面方向</text>
    <text x="1103" y="468" font-size="10" fill="#667085">影响 6 条图文与 2 条视频排期</text>
    <rect x="1103" y="483" width="84" height="20" rx="10" fill="#FFF4E8"/>
    <text x="1145" y="497" text-anchor="middle" font-size="9" font-weight="700" fill="#B54708">今天 18:00</text>

    <rect x="1080" y="534" width="252" height="104" rx="16" fill="#FFFFFF" stroke="#E4E7EC"/>
    <circle cx="1103" cy="559" r="9" fill="#886CF4"/>
    <text x="1121" y="563" font-size="12" font-weight="700" fill="#101828">复核达人样品支出</text>
    <text x="1103" y="588" font-size="10" fill="#667085">¥1,880 · 发票已识别待入账</text>
    <rect x="1103" y="603" width="74" height="20" rx="10" fill="#F3F0FF"/>
    <text x="1140" y="617" text-anchor="middle" font-size="9" font-weight="700" fill="#5747D6">财务待办</text>

    <rect x="1080" y="654" width="252" height="124" rx="16" fill="#0B1224"/>
    <text x="1103" y="681" font-size="11" font-weight="700" fill="#98A2B3">问老板 AI</text>
    <text x="1103" y="708" font-size="12" font-weight="700" fill="#F8FAFC">“本周哪个环节最影响 ROI？”</text>
    <text x="1103" y="735" font-size="10" fill="#A9B4CA">基于任务、成本、质量和发布数据回答</text>
    <rect x="1103" y="750" width="72" height="20" rx="10" fill="#1D3154"/>
    <text x="1139" y="764" text-anchor="middle" font-size="9" font-weight="700" fill="#BFD2FF">立即查询</text>
  </g>
</svg>

